<svg width="45" height="45" viewBox="0 0 45 45" fill="none" xmlns="http://www.w3.org/2000/svg">
<path d="M13.2955 0C5.9876 0 0 5.9876 0 13.2955V31.7045C0 39.0124 5.9876 45 13.2955 45H31.7045C39.0124 45 45 39.0124 45 31.7045V13.2955C45 5.9876 39.0124 0 31.7045 0H13.2955ZM13.2955 2.04545H31.7045C37.8967 2.04545 42.9545 7.10331 42.9545 13.2955V31.7045C42.9545 37.8967 37.8967 42.9545 31.7045 42.9545H13.2955C7.10331 42.9545 2.04545 37.8967 2.04545 31.7045V13.2955C2.04545 7.10331 7.10331 2.04545 13.2955 2.04545ZM34.7727 8.18182C33.6477 8.18182 32.7273 9.10227 32.7273 10.2273C32.7273 11.3523 33.6477 12.2727 34.7727 12.2727C35.8977 12.2727 36.8182 11.3523 36.8182 10.2273C36.8182 9.10227 35.8977 8.18182 34.7727 8.18182ZM22.5 11.25C16.3171 11.25 11.25 16.3171 11.25 22.5C11.25 28.6829 16.3171 33.75 22.5 33.75C28.6829 33.75 33.75 28.6829 33.75 22.5C33.75 16.3171 28.6829 11.25 22.5 11.25ZM22.5 13.2955C27.5671 13.2955 31.7045 17.4329 31.7045 22.5C31.7045 27.5671 27.5671 31.7045 22.5 31.7045C17.4329 31.7045 13.2955 27.5671 13.2955 22.5C13.2955 17.4329 17.4329 13.2955 22.5 13.2955Z" fill="#555555"/>
</svg>
